<mxfile host="app.diagrams.net" modified="2023-05-05T07:07:02.183Z" agent="Mozilla/5.0 (Macintosh; Intel Mac OS X 10_15_7) AppleWebKit/537.36 (KHTML, like Gecko) Chrome/112.0.0.0 Safari/537.36" etag="RuoXb8sewc7ORMpyikEh" version="21.2.1" type="github">
  <diagram name="第 1 页" id="cwVA1LsxH2bUjuLMpkSF">
    <mxGraphModel dx="1242" dy="712" grid="1" gridSize="10" guides="1" tooltips="1" connect="1" arrows="1" fold="1" page="1" pageScale="1" pageWidth="827" pageHeight="1169" math="0" shadow="0">
      <root>
        <mxCell id="0" />
        <mxCell id="1" parent="0" />
        <mxCell id="EL9_3RAYoSnyoQvIIOwZ-5" style="edgeStyle=orthogonalEdgeStyle;rounded=0;orthogonalLoop=1;jettySize=auto;html=1;" edge="1" parent="1" source="EL9_3RAYoSnyoQvIIOwZ-1" target="EL9_3RAYoSnyoQvIIOwZ-4">
          <mxGeometry relative="1" as="geometry" />
        </mxCell>
        <mxCell id="EL9_3RAYoSnyoQvIIOwZ-1" value="stg_user_user_realtime" style="strokeWidth=2;html=1;shape=mxgraph.flowchart.database;whiteSpace=wrap;" vertex="1" parent="1">
          <mxGeometry x="70" y="130" width="190" height="60" as="geometry" />
        </mxCell>
        <mxCell id="EL9_3RAYoSnyoQvIIOwZ-6" style="edgeStyle=orthogonalEdgeStyle;rounded=0;orthogonalLoop=1;jettySize=auto;html=1;entryX=0.5;entryY=0;entryDx=0;entryDy=0;" edge="1" parent="1" source="EL9_3RAYoSnyoQvIIOwZ-2" target="EL9_3RAYoSnyoQvIIOwZ-4">
          <mxGeometry relative="1" as="geometry" />
        </mxCell>
        <mxCell id="EL9_3RAYoSnyoQvIIOwZ-2" value="stg_user_admin_realtime" style="strokeWidth=2;html=1;shape=mxgraph.flowchart.database;whiteSpace=wrap;" vertex="1" parent="1">
          <mxGeometry x="300" y="130" width="190" height="60" as="geometry" />
        </mxCell>
        <mxCell id="EL9_3RAYoSnyoQvIIOwZ-8" style="edgeStyle=orthogonalEdgeStyle;rounded=0;orthogonalLoop=1;jettySize=auto;html=1;" edge="1" parent="1" source="EL9_3RAYoSnyoQvIIOwZ-4" target="EL9_3RAYoSnyoQvIIOwZ-7">
          <mxGeometry relative="1" as="geometry" />
        </mxCell>
        <mxCell id="EL9_3RAYoSnyoQvIIOwZ-11" value="读取" style="edgeLabel;html=1;align=center;verticalAlign=middle;resizable=0;points=[];" vertex="1" connectable="0" parent="EL9_3RAYoSnyoQvIIOwZ-8">
          <mxGeometry x="-0.3191" y="-3" relative="1" as="geometry">
            <mxPoint y="1" as="offset" />
          </mxGeometry>
        </mxCell>
        <mxCell id="EL9_3RAYoSnyoQvIIOwZ-10" style="edgeStyle=orthogonalEdgeStyle;rounded=0;orthogonalLoop=1;jettySize=auto;html=1;entryX=0.5;entryY=0.283;entryDx=0;entryDy=0;entryPerimeter=0;" edge="1" parent="1" source="EL9_3RAYoSnyoQvIIOwZ-4" target="EL9_3RAYoSnyoQvIIOwZ-9">
          <mxGeometry relative="1" as="geometry" />
        </mxCell>
        <mxCell id="EL9_3RAYoSnyoQvIIOwZ-4" value="flink_user_job" style="rounded=1;whiteSpace=wrap;html=1;absoluteArcSize=1;arcSize=14;strokeWidth=2;" vertex="1" parent="1">
          <mxGeometry x="220" y="290" width="100" height="100" as="geometry" />
        </mxCell>
        <mxCell id="EL9_3RAYoSnyoQvIIOwZ-7" value="job_config_topic" style="strokeWidth=2;html=1;shape=mxgraph.flowchart.database;whiteSpace=wrap;" vertex="1" parent="1">
          <mxGeometry x="530" y="310" width="190" height="60" as="geometry" />
        </mxCell>
        <mxCell id="EL9_3RAYoSnyoQvIIOwZ-9" value="monitor.user&lt;br&gt;monitor.admin" style="strokeWidth=2;html=1;shape=mxgraph.flowchart.database;whiteSpace=wrap;" vertex="1" parent="1">
          <mxGeometry x="166.25" y="480" width="207.5" height="90" as="geometry" />
        </mxCell>
      </root>
    </mxGraphModel>
  </diagram>
</mxfile>
